<?xml version="1.0" encoding="UTF-8"?> <svg xmlns="http://www.w3.org/2000/svg" id="Layer_1" data-name="Layer 1" viewBox="0 0 653.45 545.45"><defs><style>.cls-1{fill:#232122;}</style></defs><g id="Xh1DKB.tif"><path class="cls-1" d="M282.59,232.22c4.48-1.27,8.63-.72,11.68,3.09,3.19,4,2.4,8.16-.28,12.37,1.9,1.65,3.69,3.29,5.56,4.84s3.61,2.7,5.3,4.18c3.36,2.95,7.51,4.14,11.61,5.41a28.53,28.53,0,0,0,8,1.13c2.79.05,5.58.36,8.37.57A16.2,16.2,0,0,0,343.26,261c3.37-2.24,6.8-4.39,10.32-6.4a59.35,59.35,0,0,1,6.06-2.58,16.45,16.45,0,0,0-1.55,3,8.46,8.46,0,0,0,0,3,13.53,13.53,0,0,1-1.19,6.3,54.17,54.17,0,0,1-7.78,14.42,32.73,32.73,0,0,1-17.5,12,25.63,25.63,0,0,1-3.72.53,52.79,52.79,0,0,1-5.59.62,28.22,28.22,0,0,1-16-4.53c-1.94-1.27-4-2.42-5.8-3.84a27.3,27.3,0,0,1-5.92-7A118.18,118.18,0,0,0,287.2,266c0,.66,0,1.31,0,2a19,19,0,0,1-.92,6.08c-1.14,3.68-3.83,5.76-7.29,7-.66.24-1.34.43-2.12.68v3q0,17.16,0,34.32c0,1.81-.08,3.63-.15,5.44a2.5,2.5,0,0,1-.26,1.27c-1.49,2-1.31,4.57-2,6.84-3.55-1.36-7.17-1.08-10.71-.2-1.09.27-1.94,1.51-3.15,2.51.79.71,1.28,1.43,1.95,1.7a5.26,5.26,0,0,1,3.05,3.42,9.21,9.21,0,0,1,1.16-.48c2.34-.6,3.53.55,2.92,2.92a8.67,8.67,0,0,1-1.11,2.44c-2.22,3.46-1.75,7.29-1.55,11.05a3.08,3.08,0,0,0,3,2.6,21.48,21.48,0,0,0,11.5-2.15c2.31-1.14,4.68-2.17,6.94-3.4a7.24,7.24,0,0,1,5.61-.56,1.45,1.45,0,0,1,1.19,1.79c-.21,2.42-.45,4.84-.44,7.26a14.5,14.5,0,0,0,.72,4.49,8.43,8.43,0,0,0,9.7,5.32,11.25,11.25,0,0,0,7.32-4.54c1.12-1.63,2.41-3.14,3.62-4.7.59-.76.71-.8,2.68-.84a2.62,2.62,0,0,1,.53,3.15c-2.49,6-6.15,10.85-12.85,12.32a13,13,0,0,1-10.5-2c-4-2.77-5.61-6.6-5.66-11.28,0-1.26,0-2.51,0-4-1.71,1.08-3.28,2.09-4.87,3.05a26.89,26.89,0,0,1-11.89,3.72,15.18,15.18,0,0,1-8.52-1.4,9.35,9.35,0,0,1-5.16-8,52.32,52.32,0,0,1,.1-6.26,14.92,14.92,0,0,1,2.59-6.95l.82-1.31a10,10,0,0,1-6.83-3.11,6.35,6.35,0,0,1-.54-7.71,11,11,0,0,1,9.24-5.11c2,0,4,0,6.14,0-.19-2.51-.37-4.8-.53-7.1-.69-9.95-.51-19.92-.52-29.88,0-1.62,0-3.25,0-5.33-.78.73-1.23,1.09-1.61,1.52-1.79,2.09-4.16,3.41-6.45,4.84-2.65,1.67-5.24,3.44-7.94,5-4.9,2.89-9.86,5.62-15.47,7.08a71.68,71.68,0,0,0-9.45,3.6c-4.61,1.94-9.1,4.2-13.78,6-5.5,2.07-10.8,4.62-16.49,6.3a53.7,53.7,0,0,0-13.15,5.86,43.07,43.07,0,0,1-8.57,3.63c-4.28,1.52-8.6,2.92-12.81,4.62-2.88,1.16-5.51,2.93-8.4,4.08s-5.86,2.52-9,3.42c-4.51,1.31-8.93,3-13.36,4.57a16.39,16.39,0,0,1-6.25,1.19,9.27,9.27,0,0,1-7.22-4.09c-1.23-1.75-2.25-3.65-3.3-5.51-.7-1.25-1.27-2.56-2-4.08-1.28,1-2.44,1.92-3.66,2.77a30.73,30.73,0,0,1-4.49,2.91c-3.78,1.74-7.55,3.52-11.49,5A69.59,69.59,0,0,0,86,347.48c-3.43,1.89-6.79,3.87-10.4,5.46-5.95,2.61-11.83,5.39-17.65,8.28a59.83,59.83,0,0,0-6.24,4.1c-2.31,1.53-4.56,3.16-6.93,4.57-6.84,4-13.73,8-20.59,12-1.85,1.08-3.65,2.24-5.47,3.38-3.19,2-7,1.5-9.18-1.92A87.21,87.21,0,0,1,2.29,368.2a10.63,10.63,0,0,1-.64-3.68c0-3.06-.33-6.15.56-9.16a7.75,7.75,0,0,1,2.1-3.93,1.61,1.61,0,0,0,.55-.79c.35-2.09,1.8-3.23,3.54-4.06,3.06-1.47,6.16-2.86,9.23-4.32,4.93-2.33,10.08-4.12,15-6.41,4.6-2.11,9.29-4.11,14.08-5.87,7.69-2.82,15.43-5.56,22.78-9.31,4.75-2.43,9.86-4.14,14.79-6.22,3.54-1.49,7-3.06,10.74-4.68a11,11,0,0,0-.75-1.69c-1.7-2.62-3.66-5.09-4.48-8.2-.67-2.5-1.53-4.94-1.53-7.59a18.62,18.62,0,0,1,7.64-15.63c2.64-2,5.18-4.24,8.4-5.31,2.87-1,5.78-1.76,8.69-2.61,2.06-.59,4.14-1.1,6.2-1.72,4.44-1.32,8.86-2.69,13.29-4a5.28,5.28,0,0,1,1.29-.26,61.56,61.56,0,0,0,13.34-2c.51-3-.28-5.87-.68-8.77-.55-4-1.33-7.93-2-11.89-.38-2.11-.78-4.23-1.14-6.35-.52-3-1-6-1.51-9-.46-2.64-1-5.28-1.4-7.93-.48-2.91-1-5.81-1.39-8.73-.55-3.81-1.1-7.61-1.54-11.44-.28-2.49-.35-5-.55-7.53-.35-4.21-.74-8.41-1.09-12.62-.05-.54,0-1.09,0-1.64a91.75,91.75,0,0,0-1.08-11.81c-.51-3.55-.77-7.13-1.21-10.7-.38-3-.86-6-1.29-9s-.88-6.18-1.34-9.27a22,22,0,0,0-.42-2.38c-.72-2.93-1.18-5.93-1.82-8.87A27,27,0,0,0,123,110.53c-1.71-2-3.46-3.92-5-6a13.14,13.14,0,0,1-2.25-12.22,11.74,11.74,0,0,1,7.11-7.92c4.36-1.64,8.72-2,13.1-.36a19.33,19.33,0,0,1,4.33,2.59,2.41,2.41,0,0,0,2.48.47c5-1.78,10.1-2.91,15.2-4.2,2.42-.61,4.83-1.28,7.26-1.88.78-.19,1.6-.2,2.38-.37s1.33-.42,2.19-.69c-.31-1-.57-2-.87-2.86-1.91-5.81.41-10.46,4.69-13.59a6.38,6.38,0,0,1,4-1.26c.53,0,1.06,0,1.86,0-.67-1.73-1.31-3.17-1.8-4.66a22.18,22.18,0,0,1-1.42-5.15,11,11,0,0,1,1.86-6.59c1.28-2,2.86-3.89,4.67-6.31.22-1.24-1.13-2.59-1.58-4.19a18.6,18.6,0,0,0-1.44-3.46c-2.38-4.55-1.84-9.32-.8-14a13.87,13.87,0,0,1,5.51-7.8c3.36-2.54,6.88-4.87,10.37-7.22a8,8,0,0,1,2.69-1.14,2.59,2.59,0,0,1,3,1.16c.77,1.28.65,2.28-.82,3.51-2.13,1.79-4.39,3.44-6.57,5.16s-4.27,3.33-6.33,5.09a7.29,7.29,0,0,0-2.73,5.65,5.27,5.27,0,0,1-.17,1,11.36,11.36,0,0,0,.34,6.38c.82,2.44,1.66,4.88,2.48,7.32,12.7-4.8,22,3.19,25,11.59a5,5,0,0,0,1.4-.31A20.77,20.77,0,0,1,221.85,46a13.93,13.93,0,0,1,11,4.18,53.76,53.76,0,0,1,5.44,6,10.85,10.85,0,0,1,2.06,5.17,20.78,20.78,0,0,0,.66,2.52,44.5,44.5,0,0,0,10.08-1,54.27,54.27,0,0,1,6.15-.63c3.2-.4,6.4-.87,9.59-1.31l6.63-.92c5.32-.72,10.64-1.47,16-2.1a15,15,0,0,1,3.44.31,10,10,0,0,0,1.61.2c3.6-.17,6.87,1.07,10.08,2.42,2.22.93,3.75,2.47,3.42,5.2a3.14,3.14,0,0,0,.37,1.77,17.19,17.19,0,0,1,1.7,6.7,13.4,13.4,0,0,0,.7,3.69c1.56,3.76,2,7.75,2.54,11.71.33,2.31.9,4.58,1.31,6.87.79,4.39,2,8.67,3.2,13a18.57,18.57,0,0,1,.39,2.08c.37,2.66.68,5.33,1.12,8,.36,2.18.89,4.33,1.35,6.53L327,126c3.42-.18,6.84-.34,10.25-.58a3.34,3.34,0,0,0,1.66-.69,18.7,18.7,0,0,1,7.27-3.38,6.91,6.91,0,0,1,2.92-.19,3,3,0,0,1,1.79,1.41,1.7,1.7,0,0,1-.71,2.15,9.18,9.18,0,0,1-1.38.83c-1.12.57-2.23,1.16-3.38,1.65a6.51,6.51,0,0,0-3.85,4.16c-.65,1.94-1.8,3.66-2.32,5.7a12,12,0,0,0,.5,6.86c.66,2,2.5,3,4.34,3.81a33.42,33.42,0,0,0,9.05,2.17,30.38,30.38,0,0,0,4.53.46,41.73,41.73,0,0,0,6.7-.61c3.67-.69,7.29-1.66,11-2.42a16.72,16.72,0,0,1,3.25-.12,2,2,0,0,0,2.07-1c.52-1.35,1.68-1.74,2.76-2.39a13,13,0,0,0,4.48-4.15c2.14-3.35,1.2-6.55-1.46-8.81-1.43-1.21-2.95-2.32-4.37-3.42a3.12,3.12,0,0,1,1.6-2.26c1-.56,1.74.17,2.23.42a16.68,16.68,0,0,1,6.53,5.17,9.64,9.64,0,0,1,1.19,9.36,13.24,13.24,0,0,1-6.49,7.57,5.46,5.46,0,0,0-1.54,1,13.55,13.55,0,0,1-8.29,4c-3.35.49-6.61,1.55-9.94,2.23a61.85,61.85,0,0,1-8.18,1.3,26.75,26.75,0,0,1-6.17-.51c-3.15-.54-6.4-.8-9.37-2.1a31.52,31.52,0,0,1-5.66-3.06,9.53,9.53,0,0,1-4-5.91c-.61-2.88-1.3-5.74-.47-8.79a4,4,0,0,0-2.88-.09c-4.59.76-9.16,1.65-13.74,2.47a31.32,31.32,0,0,1-4.51.61c-4.36.13-8.38,1.88-12.64,2.49-1.67.24-3.33.6-5,.78-2.69.29-5.38.56-8.08.71-5.24.3-8.9,3-11.46,7.41-1.11,1.9-.77,3.48.76,5.13a14.37,14.37,0,0,0,9,4.33,60.27,60.27,0,0,0,6.44.49,33.67,33.67,0,0,0,3.72-.36,8.46,8.46,0,0,1,5.58,1.57l2.74-1.21a5.21,5.21,0,0,1,2.6,3.28,12.88,12.88,0,0,0,2.05,4.31c2.4,3.12,5.86,3.42,9.36,2.67a14.93,14.93,0,0,0,8.78-5.94c1.33-1.79,1.43-4.18,1.93-6.34,0-.17.1-.34.15-.5l1.57,1c1.69,1.1,3,2.37,3.31,4.6a21.27,21.27,0,0,0,1.56,4.83,9.9,9.9,0,0,0,5.64,5.9c2.58,1,5.11,1.77,8.05,1.13,2.31-.51,3.91-1.65,4.55-3.69,1-3.18,3.36-5.47,4.81-8.71a28.76,28.76,0,0,0,.51,2.95c.26.94.68,1.83,1.09,2.9l1.72-.76c1.56-.68,2.58-.38,3.19,1.19a21.52,21.52,0,0,0,4.8,7.07,8.17,8.17,0,0,0,6,2.61,38,38,0,0,0,8-.57,6.13,6.13,0,0,0,5-4.43,11.33,11.33,0,0,1,2.32-4.79,9.23,9.23,0,0,0,1.11-2.58c.64,1,1.31,1.83,1.82,2.77s.82,2,1.27,2.93c.82,1.77,1.58,3.58,2.56,5.26,1.11,1.9,3.09,2.45,5.1,2.52a47.15,47.15,0,0,0,10.81-.43,5.32,5.32,0,0,0,3.72-2.45q2.9-4.83,5.66-9.75c1.07-1.91,1.64-2.34,3.3-2a3.55,3.55,0,0,1,2.49,3.41,8.31,8.31,0,0,1-.29,2.1c-.22.86-.53,1.7-.87,2.79,1.9,1.91,3.57,4.16,6.43,4.93a8,8,0,0,0,2.35.43c3.69-.12,7.41-.12,11.06-.58a9.08,9.08,0,0,0,7.68-5.55,12.49,12.49,0,0,1,3.11-4.37,18,18,0,0,0,1.9-2.33c.82,2.08,1.35,4.44,2.59,6.33,1.7,2.61,4,4.58,7.59,4.3a24.11,24.11,0,0,0,6.31-1.13,10.63,10.63,0,0,0,5.65-5.11c.84-1.47,1.53-3,3.26-3.77a3.89,3.89,0,0,1,4.45.6c.66.63,1.3,1.27,1.9,2,2.62,3,6.07,4,9.85,4.15a23.67,23.67,0,0,0,13.72-3.77,19.78,19.78,0,0,0,3.87-3.73,2.43,2.43,0,0,0,.43-2,2.57,2.57,0,0,1,1.28-3.16,3,3,0,0,1,3.3.05,8.77,8.77,0,0,1,1.75,1.24c2.11,2.18,4.75,2.7,7.63,2.8A39.18,39.18,0,0,0,545.14,163a10.58,10.58,0,0,0,2.44-1.07c.41-.23.95-.71,1-1.1.05-1.9,1.21-3.33,1.89-5a2.43,2.43,0,0,0,.11-.62,17.41,17.41,0,0,0,2.05-1.17c1.65-1.31,3-1.39,4.51.09a10.35,10.35,0,0,0,6.56,2.78,35.32,35.32,0,0,0,13.87-1.45,15.39,15.39,0,0,0,7.08-5.15c1-1.22,1.17-3,1.26-4.56a7.54,7.54,0,0,1,1-3.28,11.4,11.4,0,0,1,2.85-3.9c1.08-.81,2.18-1.09,3.24-.36,3.31,2.23,6.8,1.33,10.17.53a28.8,28.8,0,0,0,10.12-4.67,3,3,0,0,0,1.48-3.2c-.5-2.36-.81-4.79-2.44-6.74a7.53,7.53,0,0,0-6-2.63c-1.63,0-3.27,0-4.89-.09-2.5-.18-3.53-1.33-3.58-3.8a1.22,1.22,0,0,1,0-.27c.93-3.83-1.35-6.21-4-8.27a11.29,11.29,0,0,0-9.72-2.11c-3,.64-5.44,2.23-8,3.71-1.61.94-3.13,2.06-4.78,2.93a3.56,3.56,0,0,1-4-.66c-.91-.74-1.68-1.65-2.53-2.48a44.44,44.44,0,0,0-8.45-6.69,12.26,12.26,0,0,0-8.23-2,18.57,18.57,0,0,1-2.69,0c-1.41-2.25-1.14-3.26,1.05-4.5,3.37-1.9,6.66-1.31,10,.07a37.24,37.24,0,0,1,11.34,7.65c.84.8,1.58,1.72,2.44,2.67a39.07,39.07,0,0,1,8.53-5.56c7.92-3.77,16.14-1.83,21.92,4.21a15.71,15.71,0,0,1,4,7.84,8.72,8.72,0,0,1-.28,2.45,8.68,8.68,0,0,0,1.46-.09c5.48-1.49,11.33,1.67,13.67,5.75,1.79,3.13,3.32,6.37,3.23,10.08a8.91,8.91,0,0,1-3.64,7.38,39.73,39.73,0,0,1-11,5.93,32.34,32.34,0,0,1-12,1.43c-.81,0-1.62-.08-2.56-.13-.23,1.22-.52,2.41-.67,3.62a11.27,11.27,0,0,1-3.16,6.39,22.94,22.94,0,0,1-7.24,5.58,33.17,33.17,0,0,1-6.66,1.87,39.26,39.26,0,0,1-11.6.47,16.39,16.39,0,0,1-6.65-1.75c-.63-.33-1.28-.63-2.1-1-.16.59-.26,1.07-.4,1.53-1,3.22-3.59,4.64-6.43,5.65A44.62,44.62,0,0,1,538,171.64c-1.06.11-2.12.36-3.18.4a23,23,0,0,1-9.63-2.11c-.33-.13-.64-.31-1-.46-.07,0-.17,0-.39,0-1.37,4.37-4.61,7-8.69,8.83a26.33,26.33,0,0,1-10.31,2.59c-3.51.07-7,.18-10.42-1a25.28,25.28,0,0,1-6.18-3.53c-.34.39-.72.74-1,1.14a16,16,0,0,1-7.51,5.8,26.27,26.27,0,0,1-14.58.91,8.67,8.67,0,0,1-4.44-2.36c-1.54-1.45-1.65-1.47-3.05-.06a16.29,16.29,0,0,1-10.1,4.45,78.59,78.59,0,0,1-9.7.5,43.85,43.85,0,0,1-6.08-.87c-2.35-.34-4-1.83-5.72-3.31-.66-.58-1.29-1.21-2.06-1.94-.33.52-.57.85-.77,1.21-2,3.51-5.17,5-9,5.62a41.54,41.54,0,0,1-14.5-.12,10.55,10.55,0,0,1-7.67-5c-.5.14-1,.14-1.32.41a14.35,14.35,0,0,1-8.56,3.41c-4.3.44-8.65.57-12.84-.93a5.19,5.19,0,0,1-1.72-.7c-3.41-3-6.76-6-8.16-10.79l-2.22,3.88c-1.7,3-4.57,4.33-7.73,4.74A20.05,20.05,0,0,1,335,178.87a14.93,14.93,0,0,1-5.57-7.32,63.8,63.8,0,0,1-7,4.17c-5.13,2.3-10.44,2.5-15.42-.36a13.43,13.43,0,0,1-6.62-9.09c-.09-.42-.2-.84-.26-1.07-2.93.59-5.7,1.21-8.51,1.69a13.81,13.81,0,0,1-4,.22,44.41,44.41,0,0,1-8.69-1.5,17.88,17.88,0,0,1-9.26-6.67,9.77,9.77,0,0,1-1-9.91,13,13,0,0,1,3.15-4.65,23.43,23.43,0,0,0,1.93-1.93A11.24,11.24,0,0,1,280,139a9.65,9.65,0,0,0,3.67-1.44,8.72,8.72,0,0,1,3.5-1.19c3.71-.63,7.44-1.08,11.15-1.69a39.14,39.14,0,0,0,5.45-1.26,70.23,70.23,0,0,1,11-2.09,6.66,6.66,0,0,0,.93-.27,72.49,72.49,0,0,0-1.68-8.91,51.87,51.87,0,0,1-1.64-9.75,11.15,11.15,0,0,0-.52-2.63A104,104,0,0,1,309,98.11a91.2,91.2,0,0,1-2.16-12.92,17.18,17.18,0,0,0-1.18-4.65,16.93,16.93,0,0,1-1.07-5.25,20.36,20.36,0,0,0-.51-2.72c-.61-.08-1.37,0-1.8-.29-1.87-1.41-3.77-.72-5.66-.23a112.08,112.08,0,0,0-13,4.12c-5.49,2.16-11.3,3.23-17.07,4.41a56.33,56.33,0,0,0-6.46,1.81,95,95,0,0,1-17.91,4.3,128.82,128.82,0,0,0-19.3,4.44,65.07,65.07,0,0,1-6.52,1.38c-3.79.67-7.59,1.32-11.4,1.89s-7.17,2-10.68,3.37a51.83,51.83,0,0,1-7.48,1.89c-4,.88-8.12,1.25-12,2.7a25.24,25.24,0,0,0-2.46,1,51.66,51.66,0,0,1-10.8,3.85,16.23,16.23,0,0,0-3.77,1.26,2.17,2.17,0,0,1-2.71-.31,2.47,2.47,0,0,1-.72-2.71,4,4,0,0,1,2.26-2.56,42.5,42.5,0,0,1,5-1.91,30.42,30.42,0,0,0,7.2-2.87,38.07,38.07,0,0,1,12-3.82,69.66,69.66,0,0,0,16.5-4.54A24.53,24.53,0,0,1,203,88.39c3.88-.7,7.76-1.4,11.66-1.88,5.45-.66,10.54-2.67,15.86-3.83a94.87,94.87,0,0,1,9.41-1.87,95.76,95.76,0,0,0,18.93-4.51,104.21,104.21,0,0,1,13-3.17,68,68,0,0,0,10.76-3.22c5.56-2,11.11-4,17.15-4.06a13.84,13.84,0,0,0,2.69-.64c-3.49-1.41-6.32-2.48-9.8-1.66-4.25,1-8.67,1.23-13,1.87s-8.81,1.41-13.23,2c-4.7.65-9.38,1.55-14.14,1.76a16.38,16.38,0,0,0-3.17.52c-2.76.67-5.56.33-8.43.48-1,1-2,2-3.67,1.68a3.15,3.15,0,0,1-2.2-1.31,8.07,8.07,0,0,1-1.48-4c-.05-.63,0-1.28-.11-1.9-.36-2.34-1-4.53-3-6.11a18.44,18.44,0,0,1-1.87-2.29,8.68,8.68,0,0,0-8.56-2.73,30.91,30.91,0,0,1-3.37.77,26.85,26.85,0,0,1-3.8-.22,17.12,17.12,0,0,1-3.08,8.59c-2.47,3.6-6,5.63-10,6.94a17.8,17.8,0,0,1-6.87,1.06,16,16,0,0,1-7.45-1.95,20.79,20.79,0,0,1-2.53-2,1.23,1.23,0,0,0-1.88,0c-.78.71-1.69,1.3-2.52,2a5.81,5.81,0,0,0-2.35,3.52c-.34,2.2.52,3.8,2.72,5.12a17,17,0,0,0,7.39,2.1,52.19,52.19,0,0,0,14.8-.84c2.89-.56,5.86-.72,8.75-1.28,3.57-.7,7.09-1.66,10.65-2.45a36.44,36.44,0,0,1,7.64-1.37,4.24,4.24,0,0,1,3.05,1.5,2.73,2.73,0,0,1-.2,3.88A11.33,11.33,0,0,1,227.05,81c-3.15,1-6.37,1.71-9.57,2.49a95.41,95.41,0,0,1-10.49,2c-3,.37-6,1.21-9,1.49-3.73.34-7.43,1.09-11.25.31-2.43-.49-5-.36-7.38-1.23A46.76,46.76,0,0,1,175,84.19c-.79-.38-1.58-.72-2.22,0-1.1,1.14-2.54,1.25-3.91,1.63q-8.76,2.48-17.51,5c-2.75.77-5.51,1.52-8.28,2.22a16.91,16.91,0,0,1-2.68.3A3.23,3.23,0,0,1,137.59,92a7.9,7.9,0,0,0-6.49-2.74,33.08,33.08,0,0,0-5.34.61c-2.64.54-3.84,2.62-4.27,5a8.82,8.82,0,0,0,2.59,7.91c2.74,3,5.35,6.07,6.8,9.93a73.82,73.82,0,0,1,3.65,12c.45,2.36,1.34,4.63,1.82,7,.76,3.75,1.38,7.54,2,11.33.49,3.1.88,6.22,1.3,9.33.5,3.72,1,7.44,1.48,11.17.62,5.09.92,10.21,1.24,15.33.29,4.57.63,9.15,1.06,13.71a177,177,0,0,0,2.48,18.88c1,4.9,1.55,9.89,2.38,14.84.76,4.57,1.63,9.13,2.43,13.69.64,3.61,1.3,7.22,1.84,10.84.59,4,1.15,8,1.53,12a59.53,59.53,0,0,1,.06,7.07,3.5,3.5,0,0,1-.64,1.43,25,25,0,0,0-3,14.57c.25,3.64,2.55,5.66,6.46,6.36a23.21,23.21,0,0,0,8.83,0A5.91,5.91,0,0,0,169,290.3c.74-.78,1.59-1.44,2.36-2.18a2.33,2.33,0,0,0,.78-1c.31-1.51,1.39-2.22,2.61-2.87a31.18,31.18,0,0,1,9.89-3.16c3.65-.58,7.3-.87,11-1.11,2.12-.15,4.22-.69,6.33-1s4-.76,6.07-1a165.94,165.94,0,0,0,20.49-3.9c4.25-1.05,8.49-2.1,12.82-2.82,5.61-.92,11.13-2.33,16.69-3.54l11-2.38a1.36,1.36,0,0,0,1.24-1.43c.31-3.85.81-7.67,1-11.52a29.28,29.28,0,0,0-.47-5.34c0-.39-.44-.76-.72-1.1-3.76-4.4-4.86-9.56-4.07-15.13a10.3,10.3,0,0,1,3.27-6.58c1.59-1.37,1.54-3.06,1.39-4.91s0-3.55,0-5.33c0-.17.09-.34.1-.51.22-5.69,1.06-11.39.47-17.06-.53-5.06-.25-10.12-.47-15.17a9.06,9.06,0,0,1,.15-2.44,2.33,2.33,0,0,1,2.65-1.77,2.25,2.25,0,0,1,2.11,2.06c.6,4.53,1.08,9.07,1.76,13.58.94,6.22.55,12.46.4,18.69-.09,3.7-.22,7.39-.37,11.08a3.86,3.86,0,0,0,.81,2.77,18.9,18.9,0,0,1,3.72,6.46C282,231.84,282.34,232,282.59,232.22Zm16.6,38.62-.81-.44-.1.37h1c0,.43-.1,1,.11,1.29a29.15,29.15,0,0,0,2.86,3.58,31.38,31.38,0,0,0,14.71,8.56,25.44,25.44,0,0,0,5.31.63,16.73,16.73,0,0,0,3.18-.47c1.85-.3,3.73-.46,5.54-.93,5.35-1.37,9.35-4.84,13-8.76a24.55,24.55,0,0,0,1.89-2.77,8.1,8.1,0,0,1,.72-.81c-1.23-.53-1.71.32-2.3.77-1.94,1.47-3.68,3.26-5.78,4.4a32.41,32.41,0,0,1-12,3.51,28.74,28.74,0,0,1-9.81-.8c-4.65-1.06-11.79-4.7-15.94-7.79C300.35,270.89,299.71,271,299.19,270.84Zm40.38-.52a7,7,0,0,0-2.16.08,15.53,15.53,0,0,1-5.91.38c-2.7-.1-5.39-.42-8.08-.46a32.63,32.63,0,0,1-10-1.7c-3.71-1.25-7.53-2.24-10.74-4.74a108.2,108.2,0,0,1-10.57-9.27c-.75-.75-1.36-1.64-1.93-2.33-.43,0-.61-.06-.79-.05s-.54.08-.81.08c-2.55.05-3.7-1.51-2.68-3.83a5.66,5.66,0,0,0,.72-3.34,2.45,2.45,0,0,1,.8-2.18c.8-.86,1.52.08,2.24-.08,1.13-2.5.77-4.15-1.2-4.93-2.26-.89-4.16-.38-5,2.38-.19.59-.31,1.21-.53,1.79a17.91,17.91,0,0,1-1,2.47c-1,1.77-1.47,1.93-3.65,1.51-.27-.87-.53-1.7-.77-2.53a20.6,20.6,0,0,1-1.08-6.28c0-1.45-.12-2.9-.08-4.35A2.83,2.83,0,0,0,274.9,230h-2.76c-1.45,1.59-1.45,3.32-1,5.26.5,2.15,1.59,4.07,2.1,6.24.29,1.25.08,2.51.47,3.69s1.27,2.17,1.5,3.45c.34,1.93.9,3.84,1.07,5.79.34,3.94.5,7.9.7,11.86.06,1.35,0,2.72,0,4.08,0,1.9,0,1.9,2.38,2a12.05,12.05,0,0,0,.95-6.15,37.29,37.29,0,0,1-.22-4.6,1.7,1.7,0,0,1,2.61-1.62,13.22,13.22,0,0,1,1.69,1.14c.29-3.14-2.93-5.28-1.9-8.2,1-.54,1.5,0,2,.55,2.36,2.36,4.57,4.89,7.47,6.65a3.14,3.14,0,0,1,.95,1,12.77,12.77,0,0,0,4.93,4.12c2.41,1.35,4.87,2.65,7.34,3.9,3,1.54,6.07,3.11,9.18,4.48,7.49,3.29,14.89,2.34,22.13-.87,1.14-.51,2-1.68,3-2.54l.4-.17-.19-.16Zm-191-3.63a28.87,28.87,0,0,1-12.21,2.56,4.82,4.82,0,0,0-1.07.13c-4.28.94-8.55,1.9-12.84,2.82-3.75.8-7.48,1.83-11.28,2.26a18.36,18.36,0,0,0-13,7.48,7.88,7.88,0,0,0-1.62,3.64c-.62,5.28-.34,10.48,2.59,15.16a41.34,41.34,0,0,1,3.3,6.75c1.42,3.56.21,6.31-2.86,7.53-4.66,1.86-9.23,4-13.86,5.91-4.87,2.06-9.87,3.85-14.61,6.18-5,2.46-10.2,4.36-15.38,6.32-3.52,1.33-7.1,2.48-10.59,3.87-3.16,1.25-6.25,2.7-9.36,4.09-1.79.8-3.54,1.69-5.34,2.47-2.71,1.18-5.47,2.27-8.18,3.46-2.13.93-4.14,2.25-6.35,2.87-2.79.79-4.31,2.87-6,4.84a5,5,0,0,0-1.15,2.68c-.28,3.27-.08,6.49,1.67,9.42,1.11,1.85,2.2,3.71,3.29,5.57.41.69.74,1.43,1.17,2.11a1.22,1.22,0,0,0,1.84.49c2.24-1.3,4.47-2.61,6.74-3.85,3-1.64,6-3.21,9-4.83a133.8,133.8,0,0,0,15.17-9.21,23.81,23.81,0,0,1,2.63-1.88q4.88-2.55,9.83-5c3.79-1.84,7.64-3.56,11.43-5.4Q76,343,80.39,340.64A103.24,103.24,0,0,1,94.15,334a128.81,128.81,0,0,0,12.12-5.1c3.48-1.68,7-2.87,10.88-2.47a4.77,4.77,0,0,1,3.18,1.26c1.24,1.3,2.44,2.65,3.57,4.05,1,1.19,1.72,2.55,2.71,3.71.83,1,1.85,1.72,3.31,1,.55-.26,1.25-.19,1.82-.43A96.31,96.31,0,0,1,142,333a78.9,78.9,0,0,0,13.6-4.93,120.9,120.9,0,0,1,19.34-7.14,33,33,0,0,0,8.65-3.61,40,40,0,0,1,8.46-4c3.62-1.28,7.26-2.53,10.8-4,8.65-3.66,17.24-7.48,25.88-11.17,2.54-1.08,5.17-2,7.78-2.87a58.22,58.22,0,0,0,9.46-3.71c2.27-1.27,4.51-2.6,6.77-3.9,4.38-2.53,9.22-3.9,14-5.37a5.57,5.57,0,0,1,2-.12c1.18.08,1.55-.09,1.58-1.21,0-2.63,0-5.27,0-7.89a9.53,9.53,0,0,0-.69-2.36c-6.91,2.29-13.93,3.24-20.85,4.67-3.84.8-7.66,1.78-11.53,2.46-6.17,1.1-12.1,3.23-18.34,4.12-6,.86-12,2.12-18,3-4.61.7-9.26,1.17-13.91,1.66a37.29,37.29,0,0,0-11.73,3.38,22,22,0,0,1-.77,2.94c-1.67,4-5.23,5.32-9.11,5.69a52,52,0,0,1-9.25-.05c-6.53-.54-10.79-5-11.58-11.23a28.59,28.59,0,0,1,3.3-18.31A14.94,14.94,0,0,0,148.55,266.69Zm202.11-3.07-2.87,2.06.79,2.34c.79-1.23,1.54-2.39,2.26-3.57C350.91,264.35,350.78,264.14,350.66,263.62ZM325.18,130.48c-1.55,0-3.15-.49-5,.43C322.22,131.81,323.62,130.37,325.18,130.48Z"></path><path class="cls-1" d="M488.35,258.33v-1.74c1.41-1.39,2.7-1,3.91,0,1.53,1.22,3,2.51,4.52,3.73a7,7,0,0,0,1.37.67l.23.41.15-.24-.45-.1a5.8,5.8,0,0,0-.64-1.38c-1-1.19-2-2.31-3-3.47-1.57-1.86-1.48-3.09.43-5.07,1.55,1.16,3.13,2.32,4.69,3.52,5.85,4.49,11.63,9.07,18.09,12.73a19.16,19.16,0,0,0,6.81,2.27c2.76.39,5.56.5,8.35.72,2.06.16,4.12.39,6.18.42a20.54,20.54,0,0,0,11.48-3.14c2.44-1.5,5.15-2.57,7.69-3.93a20.81,20.81,0,0,0,3.8-2.54q5.91-5.19,11.67-10.56a25.59,25.59,0,0,1,5.81-4.37,7.91,7.91,0,0,0,1.23-.95c-.57-1.37-1.23-2.73-1.71-4.14a28.4,28.4,0,0,1-1.62-5.65,8.24,8.24,0,0,1,1-5.19c1.41-2.33,3.63-3.08,6.33-2.21.83.27,1.63.65,2.65,1.06.42-2.56.59-5,1.88-7.08s3.79-2.92,5.93-3.81c.28-3.71-.65-7.11-1.28-10.56a7.3,7.3,0,0,1-.27-1c-.33-7.32-1-14.63-.53-22,.16-3,.35-5.93.55-8.9.29-4.21.62-8.42.91-12.63a2.82,2.82,0,0,1,1.82-2.72,3,3,0,0,1,3.42.93,6.48,6.48,0,0,1,1.78,4.39q.39,7.44.49,14.9a32.67,32.67,0,0,1-.55,6.16,5,5,0,0,0,0,2.85,3.07,3.07,0,0,1,0,1.62,23.37,23.37,0,0,0,0,9.64,5.68,5.68,0,0,1,0,.82c.22,5,.46,9.92.65,14.89a2.69,2.69,0,0,0,1.38,2.64c2.16,1.28,2.87,3.64,3.44,5.91a11.19,11.19,0,0,1,.17,4.17,5.1,5.1,0,0,1-3.77,4.5l-1.28-1.5c.1,3.19-.29,6,.48,8.89,1.41,5.28,1.48,10.7,1.25,16.13-.2,4.69-.48,9.38-.68,14.07-.15,3.7-.3,7.4-.35,11.09a21.35,21.35,0,0,0,.45,3.73c.65,3.77.49,7.56.55,11.58a35.13,35.13,0,0,0,4.84,1.16c4.27.42,7.52,2.89,10.8,5.21A29.58,29.58,0,0,1,629.16,316c.61,1.29,1.46,2.47,2.08,3.76a2.59,2.59,0,0,1-.51,3.44,2.37,2.37,0,0,1-3.35.15,13.62,13.62,0,0,1-2.24-2.66c-1.15-1.72-2.18-3.52-3.27-5.27-2.77-4.43-7-7.21-11.39-9.7-1.22-.69-4.82-1.22-6.93-1.21a8.87,8.87,0,0,0-.12,4.46c.3.17.53.43.76.42,5.56-.14,9.36,2.94,12.29,7.14,4.19,6,2.4,12.07-3.27,16.28a18.44,18.44,0,0,1-8.94,3.35c-.44.05-.89.12-1.33.2-.07,0-.13.1-.31.26.51,1,1,2,1.58,3,2.62,4.82,2.79,10,2,15.21a27.78,27.78,0,0,1-1,4.7c-1.17,3.44-3.75,5.59-6.93,7.12a22.84,22.84,0,0,1-16.8,1.18c-.08,0-.17,0-.48.1a4.43,4.43,0,0,0-.39,1.32,9,9,0,0,1-2,5.46A23.19,23.19,0,0,1,567.14,383a23.51,23.51,0,0,1-8.94,1.6,10.16,10.16,0,0,1-6.3-1.94c-2.26-1.77-4.74-3.31-6.33-5.81-.12-.2-.41-.28-.69-.47-.46,1.41-.8,2.76-1.32,4a19.46,19.46,0,0,1-12.48,11.45c-3.42,1.15-6.81,1.55-10.24.07a26,26,0,0,1-6.61-4.62,31.6,31.6,0,0,1-6.37-8.33l-2.46-4.32,2.19-1.94a7.14,7.14,0,0,1,4.86,3,31.49,31.49,0,0,0,10,9,6.7,6.7,0,0,0,4.59.71,14.94,14.94,0,0,0,8.4-4.44,11.7,11.7,0,0,0,3.08-6.16,23.33,23.33,0,0,1,.54-2.34c.7-2.3.94-2.44,3.41-2.53a12,12,0,0,1,2.33-.3,5.6,5.6,0,0,1,3,1.7c1.41,1.4,3,2.63,4.48,3.91,3.11,2.62,6.62,2.91,10.4,1.85s7.29-2.51,10-5.48c1.33-1.45,2.42-2.77,1.4-5-.7-1.53,1.21-5,2.77-5.65a3,3,0,0,1,1.58-.16c1.41.21,2.8.59,4.21.77,4.42.57,8.79.82,12.93-1.46a5.92,5.92,0,0,0,3.25-4.08c.63-3.34,1.14-6.72.29-10.16A20,20,0,0,0,596,339.4c-2.42-3.53-2.7-4.46-2.27-8.21,1.18.82,2.12.4,3.33-.13,1.58-.68,3.51-.51,5.28-.8a14.3,14.3,0,0,0,6.94-2.71,6.56,6.56,0,0,0,1-.85c2.32-2.68,2.29-4.67-.1-7.39a11.86,11.86,0,0,0-6.61-3.78c-.25,1.18-.49,2.37-.78,3.71h-3.5c-1.07-2.73-.74-5.55-.75-8.32a50.8,50.8,0,0,0-1-11.54,7.48,7.48,0,0,1,0-1.34c-.37-7.33-.82-14.64-.69-22a3.24,3.24,0,0,0-.13-.7,34.08,34.08,0,0,1-4.78-.76c-3.23-1-6.15-5.8-5.15-9.32a12.35,12.35,0,0,1,3-5.3c.55-.59,1.12-1.14,2-.89a2.22,2.22,0,0,1,1.69,2.18c.09,1.26.06,2.54.06,3.81,0,2.86,0,2.95,3.1,4,0-.74.07-1.43.1-2.12.19-5.06.32-10.11.59-15.16A33.86,33.86,0,0,0,596,241.16a20.91,20.91,0,0,1-.21-8.62,66.65,66.65,0,0,0,.36-8.35c-2.61.59-3.3,1.67-2.91,4.08a25.25,25.25,0,0,0,1.87,7.51,2.79,2.79,0,0,1-.94,3.4,3,3,0,0,1-3.55.3c-1.38-.82-2.7-1.77-4.09-2.59a9.67,9.67,0,0,0-1.82-.6,7.57,7.57,0,0,0,1,3.83c.74,1.62,1.49,3.25,2.3,4.84a4.31,4.31,0,0,1-.33,4.95,3.44,3.44,0,0,1-4.17-1.29c-.61-.73-1.35-1.35-2.24-2.22-.39,1.36-.65,2.37-1,3.36a10.15,10.15,0,0,1-2.41,4.16c-3.28,3.39-6.45,6.88-9.82,10.17a30.88,30.88,0,0,1-8.47,6.18c-2.43,1.15-4.66,2.7-7.05,4-3.81,2-7.73,3.66-12.17,3.58-3.18-.06-6.4.27-9.53-.11-3.5-.42-7.11-.21-10.51-1.47a5.75,5.75,0,0,0-1.53.09c3.8,2.57,7,5.45,11,6.31a36.55,36.55,0,0,0,18.43-.43,20.27,20.27,0,0,0,4-2.15c3.59-2.05,7.12-4.2,10.75-6.17a24.23,24.23,0,0,0,9-8.69,13.4,13.4,0,0,1,9-6.36c-.64,1.3-1.14,2.39-1.7,3.45-1.38,2.62-2.76,5.24-4.18,7.83a22.08,22.08,0,0,1-8.86,8.44c-4.13,2.37-8.3,4.66-12.4,7.07a24.8,24.8,0,0,1-10.18,3.18c-1.07.11-2.12.37-3.18.44a46.36,46.36,0,0,1-12-1.18,20.77,20.77,0,0,1-6.78-3.21c-5.68-3.63-11.21-7.5-16.87-11.17a18.56,18.56,0,0,1-3.61-3c-2.5-2.72-5.35-5.11-8-7.67-.64-.61-1.17-1.35-1.77-2-1-1.05-1.65-2.4-3.22-2.71Zm11.93,4.36-.54-.57c-.08-.13-.15-.27-.23-.39s-.1,0-.16.06l.46.26.54.56.39.3Z"></path><path class="cls-1" d="M472.92,147.48l2.26.33a7,7,0,0,0-1,1.11c-1.77,3.22-4.94,4.23-8.12,5.23-7.25,2.28-14.69,2.62-22.21,2.12-6-.4-11.7-1.8-16.62-5.41a18.54,18.54,0,0,1-7.27-10.1,7.37,7.37,0,0,1,.45-4.69c2.46-6.64,6.85-11.29,14.26-12.41,1.65-6.56,5.23-11.41,12.16-13.38A.57.57,0,0,0,447,110c-.07-1.71.32-3.66-.38-5.08-.64-1.27-2.38-2.1-3.77-2.89-2.94-1.68-6-3.2-9.15-4.9a26.3,26.3,0,0,1-1,2.7,57.1,57.1,0,0,1-3,5.69,7,7,0,0,1-2.57,2.35c-1.25.66-2.21,1.31-2.41,2.84a2.36,2.36,0,0,1-2.33,2c-4.3,0-8.25,1.62-12.36,2.43a24.58,24.58,0,0,1-11.23-.28,89.74,89.74,0,0,1-16.87-6.09c-4.12-2-7.16-4.75-7.72-9.61-4.12,1.56-8.25,2.71-11.94,5.2.06,1.37.1,2.72.2,4.06a1.29,1.29,0,0,0,1.39,1.33c2.15.14,4.29.36,6.44.53,3.33.26,6.17,1.49,7.71,4.57a12.4,12.4,0,0,1,1.12,4.63c.22,2.9.05,5.82.25,8.71.43,6.11-5.32,10.56-10.5,10.76-5.43.22-9.47-2.46-12.86-6.3a15.25,15.25,0,0,1-3.59-6.54,14.71,14.71,0,0,1,2.05-11.87,7.66,7.66,0,0,1,2.05-1.71,2,2,0,0,0,.8-2.87,6.64,6.64,0,0,0-2.6.06c-1.43.67-2.66.09-3.92-.24-2.59-.67-5.16-1.47-7.73-2.23a11.27,11.27,0,0,0-8.91.81c-1.49.81-3,1.52-4.54,2.31a14,14,0,0,0-5.71,4.77c-.74,1.18-1.9,1.75-2.6,1.36a3.26,3.26,0,0,1-1.95-2.73,6.67,6.67,0,0,1,1.93-5.15c2.23-2.39,4.61-4.64,6.83-7,1.27-1.36,3-1.66,4.59-2.05A28.82,28.82,0,0,1,344.22,99a24.33,24.33,0,0,1,9.95,3.72,6.55,6.55,0,0,0,1.69.46,15.07,15.07,0,0,0,0-3.1,22.21,22.21,0,0,1-.36-6.45,22.49,22.49,0,0,0-.94-7.73,60.61,60.61,0,0,1-1.25-6c-.51-2.54-1.08-5.07-1.53-7.62a18.25,18.25,0,0,1,.24-7.78c.71-2.79,2.09-4.72,5.38-4.94a21.89,21.89,0,0,1-.24,5,15.65,15.65,0,0,0,.42,8,59.4,59.4,0,0,1,2.14,10.21,9.39,9.39,0,0,0,.57,2.35,18.61,18.61,0,0,1,1.06,8.23c-.08,1.53,0,3.06,0,4.87a8.2,8.2,0,0,0,1.77-.43c2-1,3.93-2.16,5.9-3.25a.89.89,0,0,1,.22-.16c1.66-.6,3.56-.88,4.94-1.87s1.94-2.8,3.15-4a8.33,8.33,0,0,1,7.66-2.3c.52,2.08.38,2.56-1,3.48a2.65,2.65,0,0,1-.49.2c-4.45,2-4.41,6-3,9.92a5.64,5.64,0,0,0,3.12,2.88,82.93,82.93,0,0,0,13.52,5.2,53.53,53.53,0,0,0,6.49,1.5,12.75,12.75,0,0,0,4-.1c3.43-.62,6.83-1.42,10.25-2.09,1.13-.23,2.3-.27,3.4-.4,1.22-.88,2.48-1.7,3.66-2.64a12.33,12.33,0,0,0,4.56-8,5,5,0,0,0-1.46-4.2c-1.19-1.22-2.55-2.28-3.82-3.42-.64-.58-1.64-1-1.08-2.31,2.38-.52,4,1.14,5.62,2.39a37.29,37.29,0,0,1,4.35,4.86c1.19-1.22,2.79-1.15,4.47-.55,2.53.91,5.1,1.69,7.31,3.3a2.34,2.34,0,0,0,.82.2c0-2.13.31-4.24-.08-6.22a33.36,33.36,0,0,1-.26-8.1c.11-2.43.39-4.85.41-7.28a13.61,13.61,0,0,1,4.52-10.31,24.63,24.63,0,0,1,2.35-1.83c1.69-1.22,2.54-1.19,4.56.17a5,5,0,0,1-1.92,4.48c-3.05,2.5-3.92,5.63-3.65,9.4.14,1.95-.28,3.93-.33,5.9-.07,2.25-.4,4.49.33,6.73a15.27,15.27,0,0,1,.26,3.48c.76-.27,1.3-.48,1.86-.67,1.76-.62,3.59-1.1,5.28-1.88a2.83,2.83,0,0,1,3,.41c1.78,1.08,1.81,1.14,3.23-.38a12.26,12.26,0,0,1,6.63-3.89,16.29,16.29,0,0,1,3.18-.41,1.67,1.67,0,0,1,1.55,2.62,4.17,4.17,0,0,1-1.47,1.45c-.83.54-1.77.89-2.64,1.36a10.85,10.85,0,0,0-5.33,6.78,5.09,5.09,0,0,0,.13,2.62c1.24,4.44,4.32,7.12,8.53,8.66a82.22,82.22,0,0,0,11.3,2c1.61,0,3.21-.28,4.82-.3q6.94-.09,13.89-.06a20,20,0,0,1,2.63.43c.91.13,1.7.62,1.6,1.5a4.14,4.14,0,0,1-1.16,2.27,4.35,4.35,0,0,1-2.15,1,30.41,30.41,0,0,1-4.26.52c-3.42.22-6.84.43-10.26.54-6.5.2-12.9-.21-19.09-2.54a18.39,18.39,0,0,1-10.95-10.46c-1.17-2.74-1.67-5.48-.57-8.36.08-.21,0-.5-.08-.91a16.23,16.23,0,0,0-6.93,3.44,6.85,6.85,0,0,0-2.27,5.29c-.09,2.08,0,4.17,0,6.36l3.37.8c4.69,1.11,8,6.06,8.17,10.22a31,31,0,0,1-2.41,14.33,8.59,8.59,0,0,1-8,5.46c-4.68.16-8.26-2-11.61-4.92a23.65,23.65,0,0,1-6-8.17c-1.06-.41-1.81.31-2.5.74-3.7,2.32-6.59,5.3-7.35,9.83a2.55,2.55,0,0,0,0,1.5,15.09,15.09,0,0,0,4,5.26A22.41,22.41,0,0,0,442.76,150c2.24.06,4.48.34,6.72.47,5.73.33,11.25-.92,16.78-2.16,1-.24,2.05-.57,3.16-.88-.62-2.13.24-3.68,1.74-5.08a9.36,9.36,0,0,0,1.77-2.36c1.85-3.39,1.61-6-1.24-8.42-1.44-1.2-2.49-3.13-4.85-3.18-.9,0-1.94-2-1.78-2.74a2.94,2.94,0,0,1,2.36-1.91,4.92,4.92,0,0,1,3.15.51c2.94,1.78,5.81,3.63,7.63,6.67a10.73,10.73,0,0,1,.6,10.09A11.73,11.73,0,0,1,472.92,147.48Z"></path><path class="cls-1" d="M431.22,452.42c2.39.78,3.17,2.59,3.2,5,0,3.7.61,7.42.27,11.07-.54,5.8-.32,11.57-.29,17.35,0,3.15.28,6.29.37,9.44a9.42,9.42,0,0,1-.29,2.36,2.62,2.62,0,0,0,1,2.87c1.62,1.22,3.17,2.59,5.36,2.82a26.61,26.61,0,0,1,7.87,2.42c3.11,1.38,6.47,1.87,9.74,2.65q7.77,1.85,15.57,3.58a42.82,42.82,0,0,1,8.25,3,13.58,13.58,0,0,0,2.76,1,13.35,13.35,0,0,1,9.3,7,9.05,9.05,0,0,1-.64,9.6c-2.67,3.8-6.37,5.88-10.59,7.33a47.47,47.47,0,0,1-11,2.14c-2.31.22-4.6.73-6.92.89-2,.15-4.11,0-6.17,0a16.07,16.07,0,0,0-2.6.1c-3.61.54-7.21,1.14-10.82,1.69a6.05,6.05,0,0,1-1.9,0,41.49,41.49,0,0,0-13.16-.07c-2.54.36-5.2-.14-7.81-.22a38.27,38.27,0,0,0-6.51,0,46.87,46.87,0,0,1-10.72,0c-2.8-.23-5.58-.74-8.53-.39a39.12,39.12,0,0,1-13.41-.7,7.66,7.66,0,0,0-1.34-.16c-3.24-.2-6.47-.43-9.71-.56A45.7,45.7,0,0,1,361,540.45a9.68,9.68,0,0,1-3.07-1.6,7.56,7.56,0,0,1-2.23-8.52,11.87,11.87,0,0,1,5.85-6.73c2.38-1.19,4.47-3,6.79-4.29,4.7-2.69,9-6.1,14.54-7.19a15.89,15.89,0,0,0,3.22-1.31q7.79-3.6,15.24-7.81c1.39-.79,2.87-1.43,4.53-2.25.05-.4.17-1,.21-1.61.21-3.51.36-7,.61-10.52.28-4,.76-8,.91-12.07a83.3,83.3,0,0,0-.37-8.35c-.11-1.7-.41-3.38-.49-5.08a19.2,19.2,0,0,1,.32-2.9c.07-.61.12-1.21.19-1.91-2.15,0-4.13,0-6.09,0-1.25,0-2.48.3-3.72.37-3.6.2-7.2.48-10.8.48a79.63,79.63,0,0,1-10.25-.54A65.33,65.33,0,0,1,359.17,454a23.14,23.14,0,0,1-5.66-3.5,96.83,96.83,0,0,1-8.31-7.77,68.2,68.2,0,0,1-5.65-7.21,6.86,6.86,0,0,1-1.14-4.61,2.7,2.7,0,0,1,1.7-2.52,3.2,3.2,0,0,1,3,.77,5.72,5.72,0,0,1,1.6,2.15,8.19,8.19,0,0,0,2.42,3.21c3.65,3.52,7.31,7,11.09,10.42,2.3,2.06,5.25,3,8.14,4a50,50,0,0,0,16.26,2.74c4.9-.05,9.84.28,14.7-.17,4.59-.43,9.27-.18,13.79-1.44a50.47,50.47,0,0,0,10.12-4.16,52.7,52.7,0,0,0,4.92-2.78c2.08-1.44,4-3.07,6-4.63.84-.66,1.71-1.29,2.53-2a8.41,8.41,0,0,1,7.69-2,6.6,6.6,0,0,1-1.69,5,57.1,57.1,0,0,1-16,12.64,56.22,56.22,0,0,1-12.37,5.05c-.13,0-.23.24-.49.52,2.14,1.76,2.09,4.29,2.38,6.79a84.06,84.06,0,0,1,.89,12.06c-.11,3.93-.62,7.86-.86,11.79-.15,2.36-.05,4.72-.21,7.08a20.84,20.84,0,0,1-.75,4.73c-1.05,3.38-2,3.9-5,3.94-2.51,4.16-6.56,6.67-10.63,9.16a74.83,74.83,0,0,1-15.42,7.1,36.29,36.29,0,0,0-6.84,3.64c-3.37,2-6.69,4.11-10,6.24a20.24,20.24,0,0,0-2.39,2.19,9.72,9.72,0,0,0,1.85.94,44.22,44.22,0,0,0,9.31,1.35,62.52,62.52,0,0,1,10,.56,51.78,51.78,0,0,0,11,.9c1.16-.05,2.31-.43,3.45-.38a71.67,71.67,0,0,1,7.75.65,31.18,31.18,0,0,0,9.15,0,25.12,25.12,0,0,1,6.48-.13,41.91,41.91,0,0,0,9.63,0,34.62,34.62,0,0,1,10.79.25c2.59.58,5.2-.14,7.74-.64a35.52,35.52,0,0,1,9.07-.86,53.84,53.84,0,0,0,13.16-1c1.58-.28,3.18-.44,4.78-.57,2.46-.21,4.61-1.3,6.84-2.21a7.88,7.88,0,0,0,3.49-3.24,1.47,1.47,0,0,0-.08-2,8,8,0,0,0-3.66-2.63c-2.61-.84-5.13-2-7.75-2.81s-5.13-1.46-7.73-2c-5.2-1.16-10.44-2.15-15.64-3.34-2.23-.52-4.38-1.4-6.58-2.08-2.45-.76-4.88-1.58-7.37-2.18-4.63-1.12-8-4-10.77-7.64a6.76,6.76,0,0,1-1-6c.75-3.07.27-6.12.31-9.17,0-1.42-.25-2.84-.34-4.27-.36-5.79.5-11.54.56-17.33,0-3.33.27-6.66.51-10C428.08,454.76,428.7,453,431.22,452.42Z"></path><path class="cls-1" d="M167.88,188.68a8.39,8.39,0,0,0,5-2.6,39.78,39.78,0,0,1,4.24-3.78c3.16-2.23,6.77-.82,7.53,2.94.52,2.54.76,5.13,1.1,7.7.1.7.13,1.41.22,2.45,1.47-5.61,2.81-10.88,4.26-16.12s2.86-10.33,4.5-15.42a63.45,63.45,0,0,1,3.93-10,28.26,28.26,0,0,1,8.24-10.22,18.92,18.92,0,0,0,1.39-1.3,4.23,4.23,0,0,1,6.25.07,6.85,6.85,0,0,1,1.72,2.68c1.81,5.92,3.7,11.83,3.24,18.17-.19,2.69.18,5.41-.4,8.09a2.48,2.48,0,0,0,.4,1.89c.59-2.46,1.17-4.92,1.79-7.36,2.28-9,4.67-17.95,8.29-26.51a37,37,0,0,1,4.57-7.89c1.87-2.47,4.4-4.25,7.84-4a4.35,4.35,0,0,1,3.88,2.47,26.82,26.82,0,0,1,2.6,7.86c.86,5.22.64,10.48.39,15.71-.16,3.29-.95,6.54-1.41,9.81-.43,3.1-.77,6.22-1.18,9.33-.5,3.81-1,7.62-1.53,11.43-.23,1.77-.49,3.55-.59,5.34-.25,4.69-.57,9.38-.58,14.07a10.48,10.48,0,0,0,3.32,7.72c1.55,1.52,5.64,1.87,7.37.6,3-2.19,6-4.32,8.85-6.61a4.14,4.14,0,0,1,3.62-.82c.65,1.14.25,2.06-.46,3.14-1.57,2.41-3.91,4-6,5.81-.68.59-1.47,1.05-2.13,1.65a10,10,0,0,1-6,2.71,9.76,9.76,0,0,1-7.72-2.52c-1.3-1.26-2.53-2.59-3.82-3.87-1.54-1.54-1.6-3.66-1.7-5.52a113.23,113.23,0,0,1,0-14.15c.31-4.35,1.28-8.65,1.91-13,.26-1.77.43-3.56.59-5.35.25-2.87.42-5.75.71-8.61.25-2.4.65-4.78.9-7.18s.4-4.66.59-7a59.24,59.24,0,0,0-1-14.8,19.12,19.12,0,0,1-.12-2.23c-1.93-.12-2.91.91-3.89,2.16a41.69,41.69,0,0,0-5.29,9.63,134.1,134.1,0,0,0-6.45,20.7c-1.39,5.72-2.55,11.49-4,17.21a163.88,163.88,0,0,1-5.52,17.6,3.37,3.37,0,0,1-2.41,2.33,3,3,0,0,1-3.46-2.88c-.11-2.9-.19-5.81-.1-8.72.14-4.6.35-9.21.68-13.8.11-1.58.78-3.11,1-4.7.32-2.76.46-5.56.69-8.34.1-1.15.34-2.3.34-3.45a38,38,0,0,0-.27-5.12c-.3-2.2-.78-4.38-1.23-6.57-.18-.86-.48-1.7-.73-2.57-1.78,0-2.77,1.07-3.65,2.13-1.48,1.8-2.8,3.72-4.13,5.64a11.58,11.58,0,0,0-.88,2,90.6,90.6,0,0,0-4.72,14.47c-1.53,6-3.3,11.87-4.78,17.85a84.29,84.29,0,0,1-3,10.83c-.82,2.07-1.8,4.09-2.79,6.09a4.19,4.19,0,0,1-1.25,1.4,2,2,0,0,1-3.34-1.09,4.75,4.75,0,0,1-.15-1.06c-.18-3.33-.25-6.67-.57-10-.26-2.58-.82-5.13-1.28-7.68,0-.23-.33-.42-.68-.84-1.19,1.26-2.36,2.47-3.5,3.71a14.8,14.8,0,0,1-7.35,4.24c-1.6.44-2.76-.32-4.12-.52-.49-.08-1-.19-1.54-.3,0,2.79-.11,5.4,0,8,.11,2.13.51,4.25.82,6.37.52,3.54,1.08,7.08,1.59,10.62q.63,4.25,1.18,8.51c.59,4.46.94,8.94,1.31,13.42s1.42,9,2.17,13.47c.49,2.91,1,5.82,1.46,8.73a12,12,0,0,0,.18,1.61,6.86,6.86,0,0,1-.63,5.44,23.19,23.19,0,0,0-.87,2.22c-3.12-2.25-4.58-5.45-5.21-9.25-.68-4-1.79-8-2.44-12.07a88.25,88.25,0,0,1-1.43-10.67c-.15-3.92-.88-7.82-1.37-11.72-.42-3.3-.83-6.59-1.29-9.88-.34-2.48-.76-5-1.14-7.44-.32-2.12-.72-4.23-.93-6.37-.27-2.77-.26-5.58-.59-8.35-.52-4.44-1.2-8.86-1.83-13.3-.45-3.18-.92-6.35-1.41-9.53-.76-4.94-.57-9.92-.53-14.89a12.67,12.67,0,0,0-1-5.51,27.53,27.53,0,0,1-1.69-5.08,35.89,35.89,0,0,1-1-6.06,87.71,87.71,0,0,0-2.1-12.69c-.3-1.39-.47-2.81-.66-4.22-.74-5.59-1.49-11.18-2.17-16.78a4.27,4.27,0,0,1,.75-3.34,2.05,2.05,0,0,1,3.27-.32,7.82,7.82,0,0,1,1.73,2.68,67.81,67.81,0,0,1,2.85,11.71c.75,4.49,1.69,9,2.45,13.44a74.77,74.77,0,0,1,1.17,9,27,27,0,0,0,1.83,8.38,22.57,22.57,0,0,1,1.56,7.55c.05,2.81.09,5.63,0,8.44-.08,4.26.89,8.4,1.26,12.61a28.54,28.54,0,0,0,.44,3.45,3.88,3.88,0,0,0,1,1.82c.83.81,1.89,1.37,2.74,2.15A34.37,34.37,0,0,1,167.88,188.68Zm50.81-13.24h.25V174h-.25Z"></path><path class="cls-1" d="M476.84,255a21.1,21.1,0,0,1-3.57,6.55c-3.12,4.13-7.34,6.78-11.75,9.29s-9,5.22-13.76,7.37a46.5,46.5,0,0,1-9.25,3.55c-2.53.54-5.07,1.05-7.61,1.5a57.61,57.61,0,0,1-17.78,0,27.91,27.91,0,0,1-6.34-2.1,114.83,114.83,0,0,1-11.09-4.8c-2.19-1.16-3.92-3.16-5.91-4.71-3-2.32-6-4.6-9.06-6.83-.7-.51-1.66-.67-2.41-1.13a2.75,2.75,0,0,1-1.18-1.28,1.46,1.46,0,0,1,.93-1.77,11.81,11.81,0,0,1,2.31-.56,12.14,12.14,0,0,1,1.3-.12,5.53,5.53,0,0,0-.57-1.23c-.72-.82-1.49-1.59-2.25-2.37a8.48,8.48,0,0,1-2.12-7.75,2.71,2.71,0,0,1,1.66-2.28c.84-.31,1.63-.73,2.46-1.06a11.33,11.33,0,0,0,4.87-3.32c2.14-2.66.89-4.81-1.44-5.78a3.16,3.16,0,0,0-2.58.17c-2.41,1-3.77,3-5.13,5-.24.37-.36.83-.6,1.2a2.74,2.74,0,0,1-5-2.23,24.38,24.38,0,0,0,.82-8.86,11.28,11.28,0,0,0-.64-2.86c-.12-.36-.6-.61-.92-.92-2.11.82-2.49,2.77-2.82,4.4-.46,2.24-1.2,4.57-.25,6.9a.8.8,0,0,1,.06.52c-.29.7-.15,1.7-1.22,1.86a1.68,1.68,0,0,1-1.9-1.15q-2.77-5.67-5.66-11.29a8.52,8.52,0,0,0-3.48-4,12.91,12.91,0,0,0-2-.63,6.27,6.27,0,0,0,0,3.69c.68,2.4,1.24,4.84,1.9,7.25a9,9,0,0,0,2.76,4.25,29.49,29.49,0,0,0,3.19,2.5,8.61,8.61,0,0,1,2.93,3.8,2.07,2.07,0,0,1-.62,2.84c-.88.64-1.61.55-2.68-.29-1.69-1.35-3.36-2.73-5.1-4a14.54,14.54,0,0,1-6-9.79c-.45-2.66-1.16-5.27-1.06-8a7.34,7.34,0,0,1,1.44-4.28,3.08,3.08,0,0,1,4-1.17,10.9,10.9,0,0,1,6.05,5.1c.86,1.67,1.8,3.31,2.71,5,.33.59.69,1.15,1.19,2,.61-1.75,1-3.17,1.59-4.54a10.07,10.07,0,0,1,1.37-2.29c2.25-2.9,6-2,7.77.11a12.33,12.33,0,0,1,2.2,5.14c.08.35.1.7.19,1.35a22.5,22.5,0,0,0,2.17-1c5.26-3.08,10.88.13,12.9,4.43,1.45,3.08.78,6.93-1.91,10a14.15,14.15,0,0,1-4.5,3.43c-.79.39-1.57.81-2.58,1.34a6.5,6.5,0,0,0,1,1.56,104,104,0,0,0,19.31,12.12,39.55,39.55,0,0,0,15.5,3.9c4,.19,7.92.44,11.88.66a27.08,27.08,0,0,0,15.65-4c3.85-2.27,7.65-4.64,11.43-7.05a20,20,0,0,0,3.35-2.73c3.25-3.28,6.44-6.62,9.74-10a11.42,11.42,0,0,0-.9-1.76,24.31,24.31,0,0,1-4.13-9.26c-.93-3.68.46-8,4.29-9.47a5.18,5.18,0,0,1,3.89-.06,8.51,8.51,0,0,1,4.93,4,22.19,22.19,0,0,0,1.38,2.07c.34-.86.54-1.38.76-1.89.41-1,.84-2,1.25-3a5,5,0,0,1,8-1.58,29.1,29.1,0,0,1,3.13,4.05c.31.41.56.88.77,1.22,2.43-.94,4.77-1.85,7.11-2.73a6.43,6.43,0,0,1,1.55-.4c4.33-.51,7,1.87,7.36,6.24A11.45,11.45,0,0,1,505,243.64c-1.89,1.38-3.69,2.86-6,3.53a3.56,3.56,0,0,1-3.1-.41c-1.46-1-1.22-3,.54-4.22s3.51-2.18,5.18-3.38c2.47-1.78,4.17-4,3.37-7.45a4.71,4.71,0,0,0-3.35,0,25.27,25.27,0,0,0-3.72,1.57,4.25,4.25,0,0,0-2.66,4c-.09,2.88-2.1,4.39-4.81,5.16a17.81,17.81,0,0,1-1.64-.74,2.88,2.88,0,0,1-1.18-3.62,18.66,18.66,0,0,1,1.2-2.41,4.27,4.27,0,0,0,.05-4.61c-.58-1-.77-2.4-2.37-2.93-.71,1.86-1.52,3.48-1.14,5.56a56.57,56.57,0,0,1,.61,7.25,4.35,4.35,0,0,1-.42,2.07c-1,2.09-3.14,2.31-4.4.35-1.55-2.41-2.89-5-4.24-7.48-.7-1.33-1.24-2.76-1.83-4.16a3.32,3.32,0,0,0-2.84-2.21c-1.63.82-1.65,2.2-1.23,3.71a32.18,32.18,0,0,0,3,6.58c.75,1.37,2.19,2,2.9,3.5.6,1.27,2.19,2.08,3.4,3a12.68,12.68,0,0,0,2,1,11,11,0,0,1,.09,1.55,2.36,2.36,0,0,1-2.42,2.37,6.5,6.5,0,0,1-3.82-1.09c-.44-.27-.91-.51-1.57-.87-3.59,6.5-8.95,11.2-14.95,16.07a9.5,9.5,0,0,0,1.5-.37,24.48,24.48,0,0,0,8.19-6.31,10.79,10.79,0,0,1,2.82-2,10.33,10.33,0,0,1,4.78-1.59Zm-86.1,11.51-.56-.56-1.08-.53-.55-.56-1.08-.53-.4-.29.47.22,1.08.53.55.56,1.09.53.55.56.54.54c.51.83,1,1.62,2.16,1.65a13.28,13.28,0,0,0,4.43,4.54c1.17.79,2.66,1.1,3.84,1.88,3.33,2.2,7.13,3.33,10.72,4.92a7.22,7.22,0,0,0,2.88.52c5.48,0,11,.64,16.38-1,3.7-1.14,7.56-1.85,10.74-4.3l1-.17-.12-.25-.8.49c-2.62-.09-4.95,1.37-7.58,1.36-3.88,0-7.76.25-11.63.14-2.76-.08-5.49-.69-8.25-.85a33.09,33.09,0,0,1-9.66-2.08,52.19,52.19,0,0,1-10.24-4.73,5.1,5.1,0,0,0-1.75-.39c-.4-1.47-.4-1.47-2.18-1.62Zm68.41-1.06,0,.36.2-.15Z"></path><path class="cls-1" d="M564.24,64.2a9.28,9.28,0,0,1-4.52,3.25,22.7,22.7,0,0,0-9,5.3,24.07,24.07,0,0,0-6.6,9.71,14.86,14.86,0,0,0-.95,7.33c.42,3.39.48,6.84.59,10.26a27.65,27.65,0,0,1-.41,3.81c.84.22,1.59.48,2.36.62,3.83.71,6.69,3,9.42,5.57a7.72,7.72,0,0,1,2.32,5.32,24.43,24.43,0,0,1-2,12.39c-.49,1.06-.75,2.22-1.19,3.3-1.4,3.48-3.56,6.22-7.29,7.47a10.67,10.67,0,0,1-8.86-1,24.82,24.82,0,0,1-8.75-8,17.77,17.77,0,0,1-3-9.2c-5,1.76-9.55,4-13,8a14.74,14.74,0,0,0-1.59,2.17,4,4,0,0,0-.05,3.85c1.5,3.71,4.69,5.36,8,6.75a39.49,39.49,0,0,0,13.27,3,93.68,93.68,0,0,0,13.09-.57c3.85-.35,7.6-1.13,11.4-1.71a23,23,0,0,1,3.87,0,41.24,41.24,0,0,1,3.1-3.22,9,9,0,0,0,3.19-9.38,12.27,12.27,0,0,0-5.37-7.17c-2.26-1.54-2.25-1.56-3-3.22,1.31-1.73,2.26-2.14,4.05-1.3,7.11,3.33,11.1,9.3,9.86,17.37a13,13,0,0,1-5.89,8.64c-1.88,1.29-2.72,1.13-5.22-.73-.9,3.27-3.66,4.14-6.41,4.83a72,72,0,0,1-15.39,2.35c-1.79.05-3.58.38-5.36.32a46.18,46.18,0,0,1-20.61-5.2,16.84,16.84,0,0,1-8.24-9.61,9.14,9.14,0,0,1,1.84-9.13,27.08,27.08,0,0,1,14-9.26c1.61-.41,3.15-.72,4.63.27,2.37-5.7,5.22-10.78,11.52-12.85,0-4.69.24-9.31-.74-13.85-.88-4.06.11-7.81,1.52-11.53,2.39-6.34,6.85-11,12.45-14.56a17.53,17.53,0,0,1,6.83-2.31A7.16,7.16,0,0,1,564.24,64.2Z"></path><path class="cls-1" d="M590.86,401c.17-1,.34-2.05.48-2.91,3.67-1.18,7.11-1,10.52-.86,7.83.33,15.11-1.82,22.19-4.79a27.71,27.71,0,0,0,8.64-5.84c2.2-2.16,4.36-4.37,6.55-6.55a15.85,15.85,0,0,0,4.41-8.39,49.71,49.71,0,0,0,1-10.45,12.54,12.54,0,0,0-.54-3.44c-.54-1.79-1.28-3.53-1.93-5.3a8.26,8.26,0,0,0-2.27-3.31,9.4,9.4,0,0,1-1.85-2.27c-.8-1.38-.58-2.13.79-3.09.78-.55,1.66-1,2.6-1.49a5.09,5.09,0,0,1-.38-.8c-.41-1.45-.17-2,1.16-2.53.74-.31,1.47-.65,2.22-.92a3,3,0,0,0,1.95-2.7,10.75,10.75,0,0,0-2.06-8.18A2.72,2.72,0,0,0,641.6,326a43.91,43.91,0,0,1-5.37.37,13.21,13.21,0,0,1-2.74-.57c-.21-3.18.42-4.43,3.09-4.94,2.49-.49,5-1.08,7.64-.54a7.62,7.62,0,0,1,5.13,3.65,18,18,0,0,1,3,9.61c0,5-2.07,8.06-6.76,9.8-.14.05-.23.23-.44.46,2.7,2,3.95,4.88,4.95,7.93.28.85.74,1.64,1,2.48a18.33,18.33,0,0,1,1.22,7.37c-.21,3.15,0,6.32-.62,9.44-1.09,5.21-2.68,10.17-6.65,14-2,2-4,3.93-6,6a38.85,38.85,0,0,1-12.85,8.76c-2.75,1.22-5.75,1.85-8.62,2.81-3.4,1.13-7,1.47-10.47,2.11a10.33,10.33,0,0,1-3,0c-2.75-.33-5.51-.64-8.23-1.16a26.81,26.81,0,0,1-4.14-1.53c0,1,0,1.74,0,2.53.16,4.95-1.87,8.78-5.71,11.86a17.57,17.57,0,0,1-8.68,4c-3.25.43-6.31,0-8.49-2.83a4.26,4.26,0,0,1-.65-4.78,2.18,2.18,0,0,1,3.54-.84,3.71,3.71,0,0,1,1.26,1.4c.42,1.22,1.3,1.34,2.35,1.38,4.7.16,10.14-4.16,10.87-8.73a2.41,2.41,0,0,0-.33-1.77,2.42,2.42,0,0,1,.05-3.43c.81-1,2.12-1,3.73-.23.31.15.61.35.92.53l.39.46.17-.16Z"></path><path class="cls-1" d="M477.35,388.88c-3.3,2.92-6.51,5.64-10.37,7.48a19.72,19.72,0,0,1-14.14,1.23,12.17,12.17,0,0,1-6.51-5c-1.31-1.89-2.51-3.85-3.86-5.94-.61.95-1.08,1.88-1.72,2.69-3.12,3.93-7.44,4.88-12.09,4.35A18.3,18.3,0,0,1,418,389c-1.11-1-2.11-2.17-3.32-3.41a8.67,8.67,0,0,0-1.08,1.37c-3.31,6.37-9,9.26-15.65,10.7-3.29-.36-6.63-.5-9.48-2.53-4.53-3.24-7.92-7.27-9.24-12.83-.31-1.29-.9-2.51-1.32-3.78-.48-1.5-.28-2.48.54-2.94,1-.58,2.25-.17,3.11,1.22a19,19,0,0,1,2,3.78c1.53,4.54,4.74,7.66,8.66,10a9.19,9.19,0,0,0,6.48.9,16.23,16.23,0,0,0,7.63-3.72,29.31,29.31,0,0,0,4.56-5.66c.46-.66.36-1.71.54-2.58s.41-1.88.6-2.74c2.67-.37,3-.24,3.77,1.72a15.76,15.76,0,0,0,8.29,8.79,14,14,0,0,0,10,.72c2.52-.78,3.44-2.08,3.65-4.71.1-1.34.32-2.67.42-4s1.16-1.94,1.91-2.83c.88.42,1.26,1.32,2.36,1.26a2.94,2.94,0,0,1,2.05,1.05A43.29,43.29,0,0,1,448.4,384c1.49,2.42,3.11,4.65,5.62,6.07a6.18,6.18,0,0,0,2.24.75,15.26,15.26,0,0,0,10-2.42,34.67,34.67,0,0,0,6.76-5.39,5,5,0,0,0,1.66-4.08,5.56,5.56,0,0,1,0-1.63,2.48,2.48,0,0,1,2.21-2.34c1.69-.16,2.2.16,2.92,1.76a11.67,11.67,0,0,1,.82,5c0,2.27,1.06,3.78,2.8,5.18,4.76,3.82,10.3,1.49,13.14-2.21a17.14,17.14,0,0,0,3.11-7.57c.11-.6.3-1.2.47-1.79a1.8,1.8,0,0,1,2-1.35,3.27,3.27,0,0,1,2.17,1.35,5.3,5.3,0,0,1,.6,3.1c-1,7.15-4.49,12.71-11.25,15.65-4.13,1.79-8.25,1.09-11.95-1.5C480.32,391.48,478.94,390.19,477.35,388.88Z"></path><path class="cls-1" d="M492.88,70.86c.53-1.19.92-2.09,1.33-3a43.88,43.88,0,0,0,3.41-12.38c.68-4.92-.78-9.43-2.35-14-1.12-3.23-3.3-5.76-5.26-8.43A7,7,0,0,0,488.35,32l2.25-.85a5.34,5.34,0,0,1,5.68,1.23,13.42,13.42,0,0,1,3.9,5.14c1.26,3.24,2.31,6.58,3.38,9.89A14.79,14.79,0,0,1,504,53.8c-.56,4.53-1.12,9.08-3.11,13.28-.69,1.45-1.44,2.87-2.26,4.52.61.28,1.22.56,1.82.86,2.81,1.39,5.37,3.14,6.42,6.24,1.95,5.79,2.11,11.58-.6,17.25a10.1,10.1,0,0,1-8,5.77,8.55,8.55,0,0,1-3.44-.46c-3.89-1.05-7.5-2.64-10.07-5.92A12.69,12.69,0,0,1,482.64,92c-1.53-4.32-2.14-8.72-.31-13.15,1.7-4.1,4.47-6.89,9.08-7.48A8.45,8.45,0,0,0,492.88,70.86Z"></path><path class="cls-1" d="M488.29,258.26c.89,1.31,1.73,2.67,2.7,3.93s2.15,2.63,3.31,3.88c2.95,3.17,5.92,6.33,8.93,9.44,3.69,3.79,8.19,6.5,12.53,9.45a41.88,41.88,0,0,0,12.49,5.69,113,113,0,0,0,11.82,2.86,16,16,0,0,0,7.75-.47c5.36-1.81,10.87-3.33,15.41-7,.55-.44,1.18-.77,1.72-1.23a73.49,73.49,0,0,0,12-12.76,11.18,11.18,0,0,1,6.25-3.95l-.06-.07c1.31,5.22-1.56,9.18-4.2,13.05a41.86,41.86,0,0,1-11.67,11.18,56.4,56.4,0,0,1-8.3,4.94c-6.18,2.68-12.55,4.87-19.49,4.06a30.56,30.56,0,0,1-4.52-.64c-6.1-1.65-12.37-2.84-18-5.85a72.68,72.68,0,0,1-12.33-8.07,73.94,73.94,0,0,1-7.52-6.58A115.66,115.66,0,0,1,488.12,269a19.7,19.7,0,0,1-3.36-7.57,3.91,3.91,0,0,1,1.4-3.54c.9-.6,1.51.08,2.19.46Z"></path><path class="cls-1" d="M409.8,31.48a5.32,5.32,0,0,1,4.63,3.46,20.91,20.91,0,0,1,1.87,8.61c-.18,5-.2,9.93-.46,14.89a15.33,15.33,0,0,1-1.13,4.68c-1.29,3.33-2.77,6.6-4.15,9.91a7.81,7.81,0,0,0-.31,1.36c1.24.21,2.38.36,3.51.61a7.32,7.32,0,0,1,5.66,5.23c.66,2,1.57,4.12,1.63,6.21.17,5.34-.83,10.38-5.46,13.93a25.14,25.14,0,0,0-2.41,2.21,7.79,7.79,0,0,1-8.76,1.24,23.49,23.49,0,0,1-6.64-5.41,26.81,26.81,0,0,1-4-5.09,11.54,11.54,0,0,1,4.6-15.64,17.29,17.29,0,0,1,5.33-2.48,2.19,2.19,0,0,0,1.73-1.54q2.37-6.55,4.73-13.12a12.44,12.44,0,0,0,.75-4.5,62.87,62.87,0,0,1,.51-10.53,22.63,22.63,0,0,0-1.25-10.38A16.1,16.1,0,0,1,409.8,31.48Z"></path><path class="cls-1" d="M474,263.7a17.06,17.06,0,0,1-4.21,14.36c-1.34,1.58-2.67,3.17-4.13,4.65A53.72,53.72,0,0,1,455,290.93c-2.22,1.35-4.5,2.59-6.74,3.91-3.45,2-7.34,2.76-11.15,3.64a108.59,108.59,0,0,1-11.3,2.12,24.31,24.31,0,0,1-10.67-.75,144.84,144.84,0,0,1-14.53-5.41,48.31,48.31,0,0,1-10.44-6.54,101.94,101.94,0,0,1-8.49-7.1c-2.68-2.74-5.42-5.54-7.22-9-1-1.92-2-3.84-2.88-5.79a12,12,0,0,1-.89-2.52,1.81,1.81,0,0,1,.65-2.18c1-.57,1.55.13,2.08.7,1.73,1.84,3.52,3.64,5.08,5.62a70.09,70.09,0,0,0,8.84,8.73,120.2,120.2,0,0,0,9.82,7.56c4.84,3.48,10.31,5.72,15.91,7.65.92.32,1.84.62,2.77.92a19.61,19.61,0,0,0,9.46.92c4-.66,7.89-1.49,11.83-2.25A36,36,0,0,0,449,286.51c5.48-3.32,10.78-6.85,15.2-11.55a78.14,78.14,0,0,1,5.59-5.9A15.18,15.18,0,0,0,474,263.7Z"></path><path class="cls-1" d="M230.26,321.6a2.61,2.61,0,0,0-.79,0,49.67,49.67,0,0,0-5.23,1.81,16.66,16.66,0,0,0-3.55,2.37,59.9,59.9,0,0,0-5.21,4.73,12.94,12.94,0,0,0-2.26,3.6c-.9,2-1.48,4.21-2.38,6.25-3.3,7.46-.5,16.2,5.41,20.09a12.5,12.5,0,0,1,2.36,2.24c.76.88.92,2.66.26,3.28a3.23,3.23,0,0,1-3.1.93,14.81,14.81,0,0,1-9.73-7.46c-.23-.39-.39-.81-.64-1.18-3.51-5.09-3-10.86-2.45-16.49.24-2.39,1.65-4.68,2.54-7,.49-1.25,1.13-2.46,1.5-3.74.78-2.72,2.59-4.68,4.59-6.5,1.27-1.15,2.68-2.16,3.84-3.4a15.55,15.55,0,0,1,6.27-4.1c5.62-2,11.21-4,16.91-5.74,4.42-1.34,8.92-.68,13.29.54a4.47,4.47,0,0,1,3,2.52c.75,1.73-.15,3.48-2,3.41-2.67-.11-5.41.6-8-.52-2.14.69-4.6.26-6.46,2,1.53-.28,3.09-.45,4.58-.86a12.84,12.84,0,0,1,7.14.35,1.91,1.91,0,0,1,1,1.36,1.51,1.51,0,0,1-.81,1.21,11.23,11.23,0,0,1-3.14.53,35.33,35.33,0,0,0-16.71,4.3c-1.26.7-2.51,1.4-3.79,2.06-3.51,1.8-5.86,4.81-7.82,8a17.39,17.39,0,0,0-2.49,7.6c-.2,2.38-.37,4.74.52,7.05.66,1.74.36,3.76,1.61,5.34a1.43,1.43,0,0,1,.19,1.05c-.15.57-.31,1.34-.73,1.58a1.86,1.86,0,0,1-1.69-.19,5.14,5.14,0,0,1-1.78-2.29c-1-3.89-2.41-7.71-1.93-11.87,1-9,5.74-15.52,13.31-20.15,1.51-.91,3.15-1.6,4.73-2.4Z"></path><path class="cls-1" d="M563.13,409.35a4.45,4.45,0,0,1,.48,5.69c-2.57,4.63-5,9.34-8.21,13.57a23.61,23.61,0,0,1-8.71,7.49c-3.49,1.61-6.85,3.61-10.48,4.83-4.12,1.39-8.46,2.12-12.72,3.11a52.2,52.2,0,0,1-15.06,1A44.91,44.91,0,0,1,496,443c-3.53-1.25-7.2-2.08-10.78-3.19a16.54,16.54,0,0,1-3.91-1.74,10.93,10.93,0,0,1-2.73-2.57c-.84-1.11-.83-2.83,0-3.48a3.19,3.19,0,0,1,3.19-.82c2.32.83,4.69,1.55,7.07,2.19,4.44,1.2,8.87,2.43,13.36,3.42a44.31,44.31,0,0,0,6.65.62c1.35.09,2.73-.07,4.08,0,3.53.29,6.92-.71,10.36-1.16,1.91-.24,3.78-.81,5.67-1.21a34.15,34.15,0,0,0,8.37-3.17c1.36-.68,2.71-1.37,4.09-2,4.62-2.09,7.85-5.63,10.45-9.86,1.65-2.68,3.35-5.31,5-7.94C558.45,409.85,560.43,408.75,563.13,409.35Z"></path><path class="cls-1" d="M291,423.41h6.62a11.61,11.61,0,0,1-6,6.8,35.45,35.45,0,0,1-15.41,4.14,31,31,0,0,0-5.08.56,46.48,46.48,0,0,1-8.08.42,29.08,29.08,0,0,1-8.44-1.34c-3-.82-6-1.57-9-2.58a25.64,25.64,0,0,1-8.9-4.86c-2.16-1.9-4.41-3.7-6.61-5.56-3.88-3.28-6.38-7.51-8.39-12.09a35,35,0,0,1-3.24-15.62,7.11,7.11,0,0,1,2.26-5,2.75,2.75,0,0,1,3-.56,2.5,2.5,0,0,1,1.33,2.47,22.63,22.63,0,0,0-.11,5.27,37.51,37.51,0,0,0,4,12.14c.53.92.9,1.93,1.37,2.88a17.44,17.44,0,0,0,4.48,5.36c2.67,2.28,5.39,4.49,8.22,6.55a13.2,13.2,0,0,0,4.09,1.91,132.5,132.5,0,0,0,13.37,3.59c3,.55,6.07.17,9.12.15.89,0,1.78-.22,2.67-.32,3.1-.36,6.2-.69,9.3-1.06a21.85,21.85,0,0,0,6.71-2.15l0,0,1.11-.56h0l1.66-.56Z"></path><path class="cls-1" d="M173.38,277.23a13.45,13.45,0,0,1,6.62-2.42,114.59,114.59,0,0,0,16.18-3.61,9.94,9.94,0,0,1,2.1-.37c2.51-.17,5-.26,7.53-.47a17.06,17.06,0,0,0,4-.65,42.9,42.9,0,0,1,9.92-2c5.12-.41,10-1.85,14.88-3.19a31.14,31.14,0,0,1,4.75-.76c3.83-.42,7.7-.61,11.49-1.24a7.25,7.25,0,0,1,6.3,1.9c-2.78,2.73-6.46,2.85-9.86,3.73-4,1-8.13,1-12.09,2.2-2.65.77-5.3,1.53-8,2.18a27.52,27.52,0,0,1-5.5,1c-3.71.12-7.25,1.14-10.84,1.82a33.78,33.78,0,0,1-8.23.91,30,30,0,0,0-10.37,1.22,50.56,50.56,0,0,1-10.58,1.65c-2,.15-4.09.46-6.14.51C173.74,279.69,173.61,279.44,173.38,277.23Z"></path><path class="cls-1" d="M288.32,424.47c-5.12.7-10.27,1-15.35,2.13a24,24,0,0,1-7.32,0c-2.75-.27-5.45-.95-8.18-1.4-5.77-.94-10.85-3.53-15.72-6.59a11.23,11.23,0,0,0-1.83-1.12,16.32,16.32,0,0,1-6.3-5,13.58,13.58,0,0,1-2.86-4.59c-.57-1.67-1.44-3.23-2.13-4.87a6.78,6.78,0,0,1-.67-2.28,15.52,15.52,0,0,0-1.66-6.43,2.89,2.89,0,0,1-.17-3c.9-1.43,2.4-1.76,3.22-.29,1.11,2,2.58,3.89,2.71,6.31.23,4.18,2.09,7.82,4.25,11.19a18.8,18.8,0,0,0,5.16,4.71,48.87,48.87,0,0,0,13.06,6.82,75.6,75.6,0,0,0,8.64,1.78,23.53,23.53,0,0,0,3.44.48,27.29,27.29,0,0,0,7.8-.4,39,39,0,0,1,8-1.08,32.42,32.42,0,0,0,7.37-1.46,4.56,4.56,0,0,1,4.62,1c-.5,1.81-2.28,2-3.35,3l0,0-1.66.56h0l-1.11.56Z"></path><path class="cls-1" d="M428.32,434.88l1.49.8a3,3,0,0,1-.87,3.22c-2.52,2.88-6,4.14-9.3,5.72-2.32,1.12-4.81,1.9-7.23,2.82a50.76,50.76,0,0,1-10.3,2.79c-1.81.28-3.6.76-5.41,1a7.05,7.05,0,0,1-2.71,0c-3.48-.81-7-.49-10.49-.47a55.72,55.72,0,0,1-9.3-1c-3.17-.51-5.78-2.2-8.66-3.3-4.13-3.52-9-5.89-13.53-8.83a5.23,5.23,0,0,1-2.64-3.7,4.53,4.53,0,0,1,3.1.07,14,14,0,0,1,2.69,1.16c3.66,2.26,7.56,4.13,11,6.75a23.26,23.26,0,0,0,11.4,4.4,119.67,119.67,0,0,0,20,.58,46.65,46.65,0,0,0,15-3.59c2.91-1.15,5.76-2.44,8.6-3.75A15,15,0,0,0,426.6,436,6.88,6.88,0,0,1,428.32,434.88Z"></path><path class="cls-1" d="M373.85,375.54c2.52.69,3.12,1.29,3.21,3.57.11,3.14.14,6.26-1.53,9.15-2.48,4.27-9.3,8-14.36,5.62a20.74,20.74,0,0,1-5.46-3.84c-5.1-4.92-7-11.11-6.47-18.09.07-1,.12-1.94,1.26-2.48,1.56-.75,2.07-.68,3.41.72,1,5.52,1.89,10.81,6.21,14.65.47.42,1,.74,1.49,1.15,1.34,1.21,2.77,2,4.64,1.22,2.14-.92,4-2.1,4.41-4.67.15-1,.36-1.93.57-2.9C371.6,378,372.12,376.35,373.85,375.54Z"></path><path class="cls-1" d="M344.48,368.46c2.87-.16,3.35.33,3.86,2.39.67,2.69,0,5.21-.74,7.68-.69,2.21-2.49,3.76-4.25,5.16a15.37,15.37,0,0,1-7,3.37,9.57,9.57,0,0,1-7.81-1.81,17.5,17.5,0,0,1-7-14c-.06-2.71-.14-5.41,1.07-8,.66-1.37,1.35-2.09,2.24-1.95a2.73,2.73,0,0,1,2,2.79,7.77,7.77,0,0,1,0,1.08,15.26,15.26,0,0,0,2.75,11.61,13.21,13.21,0,0,0,3.11,2.9,3.45,3.45,0,0,0,3.1.37,12.64,12.64,0,0,0,6.38-4.33,9.87,9.87,0,0,0,1.23-3.2C343.84,371.23,344.13,369.86,344.48,368.46Z"></path><path class="cls-1" d="M598,394.94a3.63,3.63,0,0,1,2.89-1.95c3.38-.79,6.79-1.46,10.18-2.19a11.11,11.11,0,0,0,2.07-.57c2.87-1.23,5.79-2.39,8.56-3.83a18.58,18.58,0,0,0,4.05-3.09c2.7-2.53,5.37-5.09,7.88-7.79A18.49,18.49,0,0,0,638.36,363c.09-3.06-.46-6.13.26-9.18.14-.61-.24-1.35-.1-2.18.94,1.22,2,2.39,2.78,3.68a7,7,0,0,1,1.2,2.94,29.44,29.44,0,0,1-.68,10.73,26.5,26.5,0,0,1-7.3,12c-3.08,2.91-6.29,5.69-9.45,8.51a5.22,5.22,0,0,1-1.36.86c-3.17,1.42-6.31,2.93-9.55,4.17a23.67,23.67,0,0,1-5.19,1.06,41,41,0,0,1-8.85.73C599.18,396.23,598.3,396.19,598,394.94Z"></path><path class="cls-1" d="M216.66,388.26a4.48,4.48,0,0,1,.13,1.2c-.86,2.85-4.49,5.76-7.29,5.42a16.49,16.49,0,0,1-7.28-2.38,17.8,17.8,0,0,1-8.17-14.13,13.13,13.13,0,0,1,1.51-8.1,7.63,7.63,0,0,1,4.63-3.43c2.27-.68,3.41.37,3.53,2.93a4.48,4.48,0,0,0,.25.87c1.21-.43,2.42-.94,3.51.25.45,1,0,1.8-.41,2.73a5.52,5.52,0,0,0,2.88,7.11c.74.31,1.52.53,2.25.86a4.07,4.07,0,0,1,.84.66c0,.2,0,.42-.06.54-2.34,3.14-4.79,2.83-7.75.26-2-1.72-2.81-4.13-3.42-6.57a4.16,4.16,0,0,1,.49-3.39c.41-.6.85-1.2.31-1.95-2.63.68-3.61,1.69-3.79,4.07-.36,4.75.83,8.94,4.54,12.15,2.72,2.36,5.76,3.58,9.42,2.49.68-.2,1.46-.09,2.12-.32A9.52,9.52,0,0,0,216.66,388.26Z"></path><path class="cls-1" d="M482.87,290.43c3.05-1.59,4-4.23,2.75-7.2a3.17,3.17,0,0,0-.24-.49,6,6,0,0,1-.55-5.95,4.41,4.41,0,0,1,3.46,1.44c5,4.71,4.87,11.63-.51,16.42-3.77,3.36-8.53,1.73-11.27-1.32a15.68,15.68,0,0,1-4-12.22A14.7,14.7,0,0,1,475.6,274a6.8,6.8,0,0,1,3.42-2.88,2.4,2.4,0,0,1,3.32,2.31,3.68,3.68,0,0,1-1.24,3.16c-2.64,2-3,4.72-2.43,7.65A8.3,8.3,0,0,0,482.87,290.43Z"></path><path class="cls-1" d="M490.3,430.44a7.29,7.29,0,0,1,2.34-.43,80.26,80.26,0,0,0,9.89,1.24c4.47.39,8.92,1.24,13.42.95,7-.46,13.84-1.82,20.07-5.16,4.56-2.43,8.56-5.67,11.11-10.37a35.35,35.35,0,0,1,2.09-3.12,2,2,0,0,1,2.31-1,2,2,0,0,1,.79,2.55c-.84,1.87-1.84,3.67-2.77,5.5-1.24,2.43-3.43,4-5.6,5.38a128,128,0,0,1-11.71,6.58,35.8,35.8,0,0,1-7.31,2.33c-2.67.65-5.45.83-8.16,1.26-4.49.72-8.68-.53-13-1.17-3.17-.48-6.31-1.17-9.46-1.8A7.19,7.19,0,0,1,490.3,430.44Z"></path><path class="cls-1" d="M318.82,441.84c-3.14-.44-6.53-.52-9.72-2-3.49-1.66-4.51-4.66-4.88-8.08a2.59,2.59,0,0,1,1.65-2.81c1.31-.3,2.59-.24,3.38,1a7.89,7.89,0,0,1,1.25,2.62,2.57,2.57,0,0,0,2.13,2.18c5.12,1.22,10.17,1.4,14.86-1.53a20.5,20.5,0,0,0,2.5-2.07,4.2,4.2,0,0,1,2.88-1.3c2,0,2.94,1.44,2.51,3.42a6.58,6.58,0,0,1-2.89,3.79A23.3,23.3,0,0,1,318.82,441.84Z"></path><path class="cls-1" d="M363,274.38a4.42,4.42,0,0,0-3.34,3.27,8.78,8.78,0,0,0,.82,6.53c3.22-2.63,3.94-6.57,6-9.64,2.87,1.39,3.68,3,2.83,5.87a20.57,20.57,0,0,1-5.62,9.09,4.7,4.7,0,0,1-7.11-.42,14.59,14.59,0,0,1-2.73-5.78c-1.21-4.1.23-7.73,2.33-11.16a5.74,5.74,0,0,1,3.32-2.21c1.31-.45,3.13.78,3.48,2.29A10.77,10.77,0,0,1,363,274.38Z"></path><path class="cls-1" d="M459.08,446.4c-4-.76-7.69-2.08-10.31-5.55a4,4,0,0,1-.8-2.78,2.56,2.56,0,0,1,4-2.15,10.52,10.52,0,0,1,1.75,1.26c4.68,4.31,7.06,3,10.71.48a12.42,12.42,0,0,0,4.62-5.55c.84-2.07,1.88-2.43,3.51-1.86a3.37,3.37,0,0,1,1.92,4.23,12.92,12.92,0,0,1-1.85,3.27,21.25,21.25,0,0,1-10.85,8.07A26.55,26.55,0,0,1,459.08,446.4Z"></path><path class="cls-1" d="M526.35,98.27c0,4.92-4,9.85-8.24,10.61a7.88,7.88,0,0,1-2.17.06c-1.11-.1-2.32-1-2.36-1.87a2.47,2.47,0,0,1,1.41-2.39c.63-.35,1.3-.63,1.93-1a9.29,9.29,0,0,0,3.28-2.65,4.63,4.63,0,0,0,.49-4.83,21.4,21.4,0,0,0-5.79-7.69c-.78-.71-1.27-1.23-.76-2.2a1.72,1.72,0,0,1,2.39-.49,9.76,9.76,0,0,1,2.3,1.38c3.15,2.59,6.16,5.3,7.17,9.5C526.17,97.42,526.31,98.11,526.35,98.27Z"></path><path class="cls-1" d="M324.59,427.35c2,3.08-.69,5.29-3.57,5.78a10.78,10.78,0,0,1-7.41-1.82,6,6,0,0,1-2.29-3.56c-.36-1.09.36-1.86,1.12-2.56a2,2,0,0,1,2.44-.38,5.51,5.51,0,0,1,1.56,1,5.2,5.2,0,0,0,4.15,1.54C321.86,427.3,323.13,427.35,324.59,427.35Z"></path><path class="cls-1" d="M570.68,405.28a2.37,2.37,0,0,1,2.81-.39,2.61,2.61,0,0,0,3-.16c1-.94,2.38-1.68,2.43-3.41a18.22,18.22,0,0,1,.54-2.82c3.4.47,4.71,2.49,3.59,5.38-1.47,3.81-5.19,6.3-8.48,5.9C571.87,409.45,570.64,408.15,570.68,405.28Z"></path><path class="cls-1" d="M462.45,426.7c2.8.39,3.77,2.15,2.76,4.66a7.34,7.34,0,0,1-2.63,3c-1.71,1.31-3.75,1.52-5.7,2a3.24,3.24,0,0,1-1.57-.11c-1.44-.41-2.47-1.41-2.31-2.28a2.26,2.26,0,0,1,2.3-1.87c.61-.07,1.2-.33,1.8-.35a4.64,4.64,0,0,0,4.5-3.18C461.83,428,462.12,427.4,462.45,426.7Z"></path><path class="cls-1" d="M641.38,334.12a5.75,5.75,0,0,1-2,4.39,1.69,1.69,0,0,1-2.23.09c-.69-.54-1.36-1.14-.87-2.24a5.61,5.61,0,0,0-.44-5.12c-.88-1.69-.07-2.73,1.82-2.62a3.56,3.56,0,0,1,2.94,2.37A13,13,0,0,1,641.38,334.12Z"></path><path class="cls-1" d="M476.91,255.06l.11-.41.24.16-.42.18Z"></path><path class="cls-1" d="M583.17,268.12l.2-.41.14.26-.4.08Z"></path></g></svg> 